<?xml version="1.0" encoding="utf-8"?>
<svg viewBox="0 0 1024 1024" xmlns="http://www.w3.org/2000/svg">
  <path d="M512 64C326.4 64 176 214.4 176 400c0 102.4 44.8 192 115.2 256v240c0 35.2 28.8 64 64 64h313.6c35.2 0 64-28.8 64-64V656c70.4-64 115.2-153.6 115.2-256C848 214.4 697.6 64 512 64zm176 832H336v-64h352v64zm0-112H336V688h352v96zm48-184c-32 28.8-73.6 44.8-118.4 44.8H406.4C361.6 644.8 320 628.8 288 600c-60.8-54.4-96-121.6-96-200 0-163.2 131.2-296 296-296s296 132.8 296 296c0 78.4-35.2 145.6-96 200z" fill="#FFFFFF" />
  <circle cx="512" cy="400" r="128" fill="#FFFFFF" opacity="0.4" />
</svg>
