<?xml version="1.0" encoding="utf-8"?>
<svg width="800px" height="800px" viewBox="0 0 1024 1024" class="icon" version="1.1" xmlns="http://www.w3.org/2000/svg">
  <path d="M512 512m-480 0a480 480 0 1 0 960 0 480 480 0 1 0-960 0Z" fill="#E9F5FF" />
  <path d="M512 128c-192 192-320 384-320 576 0 176 144 320 320 320s320-144 320-320c0-192-128-384-320-576z" fill="#3B82F6" />
  <path d="M512 896c-112 0-192-80-192-192 0-32 32-128 192-256 160 128 192 224 192 256 0 112-80 192-192 192z" fill="#FFFFFF" opacity="0.4" />
</svg>
